<svg xmlns="http://www.w3.org/2000/svg" viewBox="0 0 2560 1440"><g transform="
          rotate(0 1280 720) 
          translate(-0 -0)
          scale(1)
        "><rect width="2560" height="1440" fill="rgb(140, 122, 174)"></rect><g transform="translate(0, 0)"><path fill="rgb(123, 103, 160)" fill-opacity="1" d="M0,176.472L60.952,175.038C121.905,173.603,243.81,170.735,365.714,170.291C487.619,169.846,609.524,171.825,731.429,172.047C853.333,172.27,975.238,170.736,1097.143,151.592C1219.048,132.447,1340.952,95.692,1462.857,92.587C1584.762,89.483,1706.667,120.03,1828.571,110.668C1950.476,101.306,2072.381,52.034,2194.286,49.24C2316.19,46.446,2438.095,90.129,2499.048,111.97L2560,133.812L2560,1440L2499.048,1440C2438.095,1440,2316.19,1440,2194.286,1440C2072.381,1440,1950.476,1440,1828.571,1440C1706.667,1440,1584.762,1440,1462.857,1440C1340.952,1440,1219.048,1440,1097.143,1440C975.238,1440,853.333,1440,731.429,1440C609.524,1440,487.619,1440,365.714,1440C243.81,1440,121.905,1440,60.952,1440L0,1440Z"></path></g><g transform="translate(0, 180)"><path fill="rgb(106, 85, 146)" fill-opacity="1" d="M0,68.047L60.952,58.717C121.905,49.387,243.81,30.728,365.714,40.359C487.619,49.991,609.524,87.914,731.429,94.752C853.333,101.59,975.238,77.343,1097.143,65.207C1219.048,53.071,1340.952,53.045,1462.857,70.637C1584.762,88.229,1706.667,123.439,1828.571,142.349C1950.476,161.259,2072.381,163.869,2194.286,142.337C2316.19,120.806,2438.095,75.131,2499.048,52.294L2560,29.457L2560,1260L2499.048,1260C2438.095,1260,2316.19,1260,2194.286,1260C2072.381,1260,1950.476,1260,1828.571,1260C1706.667,1260,1584.762,1260,1462.857,1260C1340.952,1260,1219.048,1260,1097.143,1260C975.238,1260,853.333,1260,731.429,1260C609.524,1260,487.619,1260,365.714,1260C243.81,1260,121.905,1260,60.952,1260L0,1260Z"></path></g><g transform="translate(0, 360)"><path fill="rgb(91, 69, 133)" fill-opacity="1" d="M0,53.56L60.952,67.154C121.905,80.747,243.81,107.933,365.714,127.165C487.619,146.397,609.524,157.675,731.429,150.257C853.333,142.839,975.238,116.726,1097.143,90.156C1219.048,63.587,1340.952,36.561,1462.857,21.682C1584.762,6.803,1706.667,4.071,1828.571,20.539C1950.476,37.008,2072.381,72.679,2194.286,83.891C2316.19,95.103,2438.095,81.857,2499.048,75.234L2560,68.61L2560,1080L2499.048,1080C2438.095,1080,2316.19,1080,2194.286,1080C2072.381,1080,1950.476,1080,1828.571,1080C1706.667,1080,1584.762,1080,1462.857,1080C1340.952,1080,1219.048,1080,1097.143,1080C975.238,1080,853.333,1080,731.429,1080C609.524,1080,487.619,1080,365.714,1080C243.81,1080,121.905,1080,60.952,1080L0,1080Z"></path></g><g transform="translate(0, 540)"><path fill="rgb(77, 55, 121)" fill-opacity="1" d="M0,25.742L60.952,28.983C121.905,32.224,243.81,38.706,365.714,43.304C487.619,47.902,609.524,50.616,731.429,66.528C853.333,82.44,975.238,111.551,1097.143,131.375C1219.048,151.199,1340.952,161.738,1462.857,168.059C1584.762,174.38,1706.667,176.484,1828.571,164.312C1950.476,152.14,2072.381,125.691,2194.286,104.647C2316.19,83.604,2438.095,67.967,2499.048,60.148L2560,52.329L2560,900L2499.048,900C2438.095,900,2316.19,900,2194.286,900C2072.381,900,1950.476,900,1828.571,900C1706.667,900,1584.762,900,1462.857,900C1340.952,900,1219.048,900,1097.143,900C975.238,900,853.333,900,731.429,900C609.524,900,487.619,900,365.714,900C243.81,900,121.905,900,60.952,900L0,900Z"></path></g><g transform="translate(0, 720)"><path fill="rgb(67, 44, 111)" fill-opacity="1" d="M0,17.352L60.952,40.407C121.905,63.462,243.81,109.573,365.714,136.084C487.619,162.595,609.524,169.506,731.429,173.207C853.333,176.908,975.238,177.399,1097.143,167.141C1219.048,156.883,1340.952,135.876,1462.857,122.758C1584.762,109.641,1706.667,104.412,1828.571,93.729C1950.476,83.046,2072.381,66.908,2194.286,79.655C2316.19,92.402,2438.095,134.033,2499.048,154.848L2560,175.664L2560,720L2499.048,720C2438.095,720,2316.19,720,2194.286,720C2072.381,720,1950.476,720,1828.571,720C1706.667,720,1584.762,720,1462.857,720C1340.952,720,1219.048,720,1097.143,720C975.238,720,853.333,720,731.429,720C609.524,720,487.619,720,365.714,720C243.81,720,121.905,720,60.952,720L0,720Z"></path></g><g transform="translate(0, 900)"><path fill="rgb(58, 35, 102)" fill-opacity="1" d="M0,154.937L60.952,156.427C121.905,157.917,243.81,160.898,365.714,157.44C487.619,153.982,609.524,144.085,731.429,119.395C853.333,94.704,975.238,55.221,1097.143,59.949C1219.048,64.677,1340.952,113.617,1462.857,124.736C1584.762,135.855,1706.667,109.153,1828.571,86.448C1950.476,63.743,2072.381,45.034,2194.286,44.649C2316.19,44.263,2438.095,62.201,2499.048,71.169L2560,80.138L2560,540L2499.048,540C2438.095,540,2316.19,540,2194.286,540C2072.381,540,1950.476,540,1828.571,540C1706.667,540,1584.762,540,1462.857,540C1340.952,540,1219.048,540,1097.143,540C975.238,540,853.333,540,731.429,540C609.524,540,487.619,540,365.714,540C243.81,540,121.905,540,60.952,540L0,540Z"></path></g><g transform="translate(0, 1080)"><path fill="rgb(51, 28, 94)" fill-opacity="1" d="M0,176.302L60.952,162.197C121.905,148.092,243.81,119.883,365.714,103.26C487.619,86.637,609.524,81.6,731.429,68.215C853.333,54.83,975.238,33.097,1097.143,21.973C1219.048,10.848,1340.952,10.334,1462.857,20.119C1584.762,29.904,1706.667,49.99,1828.571,77.212C1950.476,104.434,2072.381,138.792,2194.286,150.442C2316.19,162.092,2438.095,151.034,2499.048,145.505L2560,139.977L2560,360L2499.048,360C2438.095,360,2316.19,360,2194.286,360C2072.381,360,1950.476,360,1828.571,360C1706.667,360,1584.762,360,1462.857,360C1340.952,360,1219.048,360,1097.143,360C975.238,360,853.333,360,731.429,360C609.524,360,487.619,360,365.714,360C243.81,360,121.905,360,60.952,360L0,360Z"></path></g><g transform="translate(0, 1260)"><path fill="rgb(44, 22, 87)" fill-opacity="1" d="M0,24.594L60.952,48.557C121.905,72.519,243.81,120.445,365.714,127.931C487.619,135.417,609.524,102.464,731.429,94.741C853.333,87.018,975.238,104.525,1097.143,105.604C1219.048,106.682,1340.952,91.333,1462.857,93.136C1584.762,94.939,1706.667,113.894,1828.571,123.115C1950.476,132.336,2072.381,131.821,2194.286,122.977C2316.19,114.133,2438.095,96.96,2499.048,88.373L2560,79.786L2560,180L2499.048,180C2438.095,180,2316.19,180,2194.286,180C2072.381,180,1950.476,180,1828.571,180C1706.667,180,1584.762,180,1462.857,180C1340.952,180,1219.048,180,1097.143,180C975.238,180,853.333,180,731.429,180C609.524,180,487.619,180,365.714,180C243.81,180,121.905,180,60.952,180L0,180Z"></path></g></g></svg>