<svg width="150" height="150" viewBox="0 0 150 150" fill="none" xmlns="http://www.w3.org/2000/svg">
<g clip-path="url(#clip0_2041_16)">
<path d="M43.9381 0.52502C35.9581 0.90152 30.5086 2.17502 25.7446 4.04702C20.8141 5.96852 16.6351 8.54702 12.4771 12.72C8.31912 16.893 5.75862 21.075 3.85062 26.013C2.00412 30.7875 0.753122 36.2415 0.400622 44.226C0.0481217 52.2105 -0.0298784 54.777 0.00912161 75.144C0.0481216 95.511 0.138122 98.064 0.525122 106.065C0.906122 114.044 2.17512 119.492 4.04712 124.257C5.97162 129.188 8.54712 133.365 12.7216 137.525C16.8961 141.684 21.0751 144.239 26.0251 146.15C30.7951 147.993 36.2506 149.25 44.2336 149.6C52.2166 149.949 54.7861 150.03 75.1471 149.991C95.5081 149.952 98.0716 149.862 106.071 149.483C114.071 149.103 119.49 147.825 124.257 145.962C129.188 144.033 133.368 141.462 137.525 137.286C141.681 133.11 144.24 128.925 146.147 123.984C147.995 119.214 149.25 113.759 149.597 105.782C149.946 97.776 150.029 95.22 149.99 74.856C149.951 54.492 149.859 51.939 149.48 43.941C149.1 35.943 147.83 30.5115 145.959 25.743C144.032 20.8125 141.459 16.638 137.286 12.4755C133.113 8.31302 128.925 5.75552 123.986 3.85352C119.213 2.00702 113.76 0.74852 105.777 0.40352C97.7941 0.0585204 95.2246 -0.0299796 74.8561 0.00902037C54.4876 0.0480204 51.9376 0.13502 43.9381 0.52502ZM44.8141 136.107C37.5016 135.789 33.5311 134.574 30.8851 133.557C27.3811 132.207 24.8851 130.575 22.2481 127.964C19.6111 125.352 17.9911 122.847 16.6231 119.351C15.5956 116.705 14.3581 112.739 14.0161 105.426C13.6441 97.5225 13.5661 95.1495 13.5226 75.126C13.4791 55.1025 13.5556 52.7325 13.9021 44.826C14.2141 37.5195 15.4366 33.5445 16.4521 30.9C17.8021 27.3915 19.4281 24.9 22.0456 22.2645C24.6631 19.629 27.1606 18.006 30.6601 16.638C33.3031 15.606 37.2691 14.379 44.5786 14.031C52.4881 13.656 54.8581 13.581 74.8786 13.5375C94.8991 13.494 97.2751 13.569 105.188 13.917C112.494 14.235 116.471 15.4455 119.112 16.467C122.618 17.817 125.112 19.4385 127.748 22.0605C130.383 24.6825 132.008 27.171 133.376 30.678C134.409 33.3135 135.636 37.278 135.981 44.592C136.358 52.5015 136.443 54.873 136.479 74.892C136.515 94.911 136.445 97.2885 136.098 105.192C135.779 112.505 134.567 116.477 133.548 119.126C132.198 122.628 130.571 125.126 127.952 127.76C125.333 130.394 122.838 132.017 119.337 133.385C116.697 134.415 112.727 135.645 105.423 135.993C97.5136 136.365 95.1436 136.443 75.1156 136.487C55.0876 136.53 52.7251 136.449 44.8156 136.107M105.956 34.9155C105.959 36.6957 106.489 38.435 107.481 39.9134C108.472 41.3919 109.88 42.5431 111.526 43.2214C113.172 43.8998 114.982 44.0748 116.727 43.7244C118.473 43.374 120.075 42.5139 121.331 41.2528C122.588 39.9917 123.442 38.3864 123.786 36.6398C124.13 34.8932 123.948 33.0838 123.264 31.4404C122.58 29.7971 121.423 28.3936 119.941 27.4075C118.459 26.4214 116.718 25.897 114.938 25.9005C112.551 25.9053 110.264 26.8577 108.58 28.5482C106.896 30.2388 105.952 32.5291 105.956 34.9155ZM36.4906 75.075C36.5326 96.345 53.8066 113.549 75.0721 113.508C96.3376 113.468 113.553 96.195 113.513 74.925C113.472 53.655 96.1936 36.447 74.9251 36.489C53.6566 36.531 36.4501 53.808 36.4906 75.075ZM49.9996 75.048C49.9898 70.1034 51.4465 65.2669 54.1855 61.1502C56.9244 57.0335 60.8226 53.8214 65.3871 51.9201C69.9516 50.0188 74.9774 49.5138 79.8289 50.4688C84.6804 51.4239 89.1398 53.7961 92.643 57.2856C96.1463 60.775 98.5362 65.225 99.5105 70.0727C100.485 74.9204 99.9996 79.9481 98.1164 84.5201C96.2332 89.0921 93.0366 93.0029 88.9308 95.7582C84.8249 98.5134 79.9942 99.9892 75.0496 99.999C71.7664 100.006 68.514 99.366 65.4781 98.1157C62.4422 96.8655 59.6824 95.0294 57.3562 92.7124C55.03 90.3955 53.1831 87.6429 51.9208 84.612C50.6585 81.5811 50.0057 78.3313 49.9996 75.048Z" fill="#F1F6FD"/>
</g>
<defs>
<clipPath id="clip0_2041_16">
<rect width="150" height="150" fill="white"/>
</clipPath>
</defs>
</svg>
