<svg width="126" height="142" viewBox="0 0 126 142" fill="none" xmlns="http://www.w3.org/2000/svg">
<path fill-rule="evenodd" clip-rule="evenodd" d="M85.539 105.868C84.7165 112.662 80.604 118.103 74.2337 120.827C70.6861 122.345 65.9228 123.164 62.1524 122.907C56.2708 122.682 50.7451 121.25 45.6516 118.633C43.832 117.697 41.1194 115.829 39.0365 114.08C38.509 113.638 38.4463 113.354 38.7954 112.859C38.9839 112.574 39.3314 112.061 40.0996 110.934C41.2137 109.301 41.3526 109.096 41.478 108.904C41.8344 108.357 42.4136 108.309 42.9848 108.759C43.0449 108.805 43.0449 108.805 43.0901 108.841C43.1838 108.914 43.1839 108.914 43.405 109.086C43.6287 109.26 43.7614 109.363 43.8151 109.404C49.3082 113.71 55.7058 116.193 62.1645 116.442C71.1505 116.319 77.6123 112.275 78.7701 106.065C80.0432 99.2309 74.6834 93.3273 64.1969 90.0367C60.9172 89.0077 52.6273 85.6864 51.0989 84.789C43.921 80.5735 40.565 75.052 41.042 68.232C41.7728 58.7783 50.5408 51.7275 61.6196 51.6802C66.5741 51.6701 71.518 52.7007 76.2676 54.7039C77.9493 55.4134 80.952 57.0489 81.9887 57.8236C82.5858 58.2625 82.7037 58.7741 82.3615 59.3259C82.1703 59.6459 81.8544 60.1532 81.1884 61.2108L81.181 61.2224C80.3044 62.6154 80.277 62.6589 80.0758 62.9848C79.7284 63.5144 79.3198 63.5637 78.6932 63.1657C73.6108 59.7483 67.9767 58.0289 61.7802 57.9048C54.0657 58.0576 48.2836 62.6531 47.9035 68.9133C47.8024 74.5674 52.0392 78.6954 61.191 81.8427C79.7678 87.8179 86.8768 94.8232 85.539 105.868ZM62.5968 8.25968C74.6913 8.25968 84.5496 19.7479 85.0109 34.1287H40.1833C40.6445 19.7479 50.5029 8.25968 62.5968 8.25968ZM125.189 36.8324C125.189 35.3391 123.988 34.1287 122.506 34.1287H93.4503C92.7374 15.1407 79.1966 0 62.5968 0C45.9975 0 32.4567 15.1407 31.7438 34.1287L2.64624 34.1292C1.18728 34.1558 0.0126389 35.3561 0.0126389 36.8324C0.0126389 36.903 0.0152788 36.973 0.0205338 37.042H0L4.14785 128.562C4.14838 128.817 4.15784 129.073 4.17681 129.332C4.18103 129.39 4.18577 129.448 4.1905 129.506L4.19946 129.699L4.20945 129.709C4.83968 136.078 9.45718 141.207 15.7358 141.444L15.75 141.457H108.05C108.094 141.458 108.137 141.459 108.181 141.459C108.225 141.459 108.268 141.458 108.312 141.457H108.508L108.513 141.454C114.901 141.279 120.075 136.078 120.622 129.631L120.625 129.628L120.629 129.542C120.634 129.474 120.639 129.406 120.644 129.338C120.654 129.176 120.66 129.014 120.663 128.853L125.189 36.972H125.186C125.188 36.9258 125.189 36.8791 125.189 36.8324Z" fill="#F1F6FD"/>
</svg>
